<svg width="827" height="664" viewBox="0 0 827 664" fill="none" xmlns="http://www.w3.org/2000/svg">
<path d="M735.087 435.043L721.565 427.241L717.943 425.144L715.86 421.522L708.043 408L700.241 421.522L698.144 425.144L694.522 427.241L681 435.043L694.522 442.86L698.144 444.943L700.241 448.565L708.043 462.087L715.86 448.565L717.943 444.943L721.565 442.86L735.087 435.043Z" fill="#AEA9FF"/>
<path d="M241.087 99.0434L227.565 91.2413L223.943 89.1441L221.86 85.5217L214.043 72L206.241 85.5217L204.144 89.1441L200.522 91.2413L187 99.0434L200.522 106.846L204.144 108.943L206.241 112.565L214.043 126.087L221.86 112.565L223.943 108.943L227.565 106.846L241.087 99.0434Z" fill="#AEA9FF"/>
<path d="M117.455 450L105 462.455L117.455 474.909L129.909 462.455L117.455 450Z" fill="#AEA9FF"/>
<path d="M464.824 579.202L526.86 651.269C537.976 664.19 557.144 666.419 570.93 656.417L608.415 629.227L625.398 486.999L601.655 460.146C591.579 448.751 574.582 446.683 562.072 455.321L531.582 476.352C526.376 479.945 521.448 483.905 516.828 488.231L467.244 534.56C454.587 546.38 453.517 566.091 464.824 579.217V579.202Z" fill="url(#paint0_radial_777_3)"/>
<path d="M505.946 508L558.171 459.267C571.15 447.153 591.55 448.091 603.356 461.349L664.057 532.052C676.156 546.131 674.968 567.264 661.373 579.906L608.401 629.227C596.463 640.343 577.676 639.302 567.029 626.953L503.483 553.2C492.043 539.913 493.129 519.968 505.946 508.015V508Z" fill="url(#paint1_linear_777_3)"/>
<path d="M663.529 535.85L602.212 464.429C595.92 457.36 587.106 453.943 578.351 454.236C586.256 454.617 593.999 458.035 599.689 464.429L661.006 535.85C671.184 547.7 670.187 565.475 658.748 576.122L604.558 626.572C599.557 631.236 593.31 633.67 586.989 633.978C594.131 634.272 601.405 631.852 607.066 626.572L661.256 576.122C672.695 565.475 673.692 547.7 663.514 535.85H663.529Z" fill="url(#paint2_linear_777_3)"/>
<path d="M615.284 522.478C605.291 516.738 596.284 520.241 593.149 521.83C592.428 522.198 591.559 522.051 590.985 521.463L584.966 515.266C584.451 514.737 584.171 514.03 584.215 513.309C584.303 511.616 584.171 508.276 582.272 505.95C582.081 505.715 581.875 505.494 581.669 505.288C578.534 502.241 573.501 502.285 570.071 504.994L566.274 508.011C564.155 509.688 563.125 512.411 563.625 515.075C563.875 516.385 564.361 517.724 565.259 518.799C567.805 521.816 570.601 523.023 574.134 522.478C574.428 522.434 574.737 522.537 574.928 522.758L581.728 530.323C581.728 530.323 578.843 534.09 578.034 537.887L545.346 538.506C545.346 538.506 542.005 533.693 537.766 533.296C533.513 532.898 531.673 533.84 530.216 534.841C528.774 535.842 524.815 539.241 524.815 539.241C524.815 539.241 520.12 545.349 525.904 551.663C531.688 557.962 539.37 552.487 539.37 552.487L543.639 549.014L577.504 548.293C577.504 548.293 579.241 562.466 595.989 568.221L595.813 579.906C595.813 579.906 592.531 582.055 591.927 584.954C591.118 588.884 592.987 591.195 592.987 591.195C594.194 592.887 595.592 593.888 596.916 594.462C599.095 595.404 601.626 595.11 603.584 593.77L606.306 591.916C606.306 591.916 611.163 588.987 611.06 584.41C610.987 581.26 609.25 579.2 608.161 578.229C607.616 577.728 607.307 577.007 607.307 576.256L607.248 568.956C607.248 568.544 607.484 568.176 607.866 568.014C609.927 567.146 616.55 564.158 620.744 560.244C625.763 555.549 627.426 550.603 627.882 545.393C628.339 540.183 627.632 529.646 615.225 522.508L615.284 522.478ZM609.883 553.429C609.883 553.429 602.156 556.873 596.549 550.294C589.352 541.876 594.606 535.356 594.606 535.356C594.606 535.356 599.948 532.383 606.115 536.239C612.267 540.095 614.033 548.484 609.897 553.429H609.883Z" fill="url(#paint3_radial_777_3)"/>
<path d="M619.284 517.478C609.291 511.738 600.284 515.241 597.149 516.83C596.428 517.198 595.559 517.051 594.985 516.463L588.966 510.266C588.451 509.737 588.171 509.03 588.215 508.309C588.303 506.616 588.171 503.276 586.272 500.95C586.081 500.715 585.875 500.494 585.669 500.288C582.534 497.241 577.501 497.285 574.071 499.994L570.274 503.011C568.155 504.688 567.125 507.411 567.625 510.075C567.875 511.385 568.361 512.724 569.259 513.799C571.805 516.816 574.601 518.023 578.134 517.478C578.428 517.434 578.737 517.537 578.928 517.758L585.728 525.323C585.728 525.323 582.843 529.09 582.034 532.887L549.346 533.506C549.346 533.506 546.005 528.693 541.766 528.296C537.513 527.898 535.673 528.84 534.216 529.841C532.774 530.842 528.815 534.241 528.815 534.241C528.815 534.241 524.12 540.349 529.904 546.663C535.688 552.962 543.37 547.487 543.37 547.487L547.639 544.014L581.504 543.293C581.504 543.293 583.241 557.466 599.989 563.221L599.813 574.906C599.813 574.906 596.531 577.055 595.927 579.954C595.118 583.884 596.987 586.195 596.987 586.195C598.194 587.887 599.592 588.888 600.916 589.462C603.095 590.404 605.626 590.11 607.584 588.77L610.306 586.916C610.306 586.916 615.163 583.987 615.06 579.41C614.987 576.26 613.25 574.2 612.161 573.229C611.616 572.728 611.307 572.007 611.307 571.256L611.248 563.956C611.248 563.544 611.484 563.176 611.866 563.014C613.927 562.146 620.55 559.158 624.744 555.244C629.763 550.549 631.426 545.603 631.882 540.393C632.339 535.183 631.632 524.646 619.225 517.508L619.284 517.478ZM613.883 548.429C613.883 548.429 606.156 551.873 600.549 545.294C593.352 536.876 598.606 530.356 598.606 530.356C598.606 530.356 603.948 527.383 610.115 531.239C616.267 535.095 618.033 543.484 613.897 548.429H613.883Z" fill="url(#paint4_linear_777_3)"/>
<path d="M620.123 527.707C608.85 516.051 598.591 530.356 598.591 530.356C598.591 530.356 603.934 527.383 610.101 531.239C616.252 535.095 618.019 543.484 613.883 548.429C619.152 546.604 627.114 534.933 620.123 527.707Z" fill="url(#paint5_radial_777_3)"/>
<path d="M567.64 510.09C567.89 511.4 568.376 512.739 569.274 513.813C571.82 516.831 574.616 518.037 578.149 517.493C578.443 517.449 578.752 517.552 578.943 517.772L585.743 525.337C585.743 525.337 582.858 529.105 582.049 532.902H585.007C586.611 532.902 587.848 531.592 587.862 529.988C587.906 524.822 590.482 522.099 592.116 521.202C592.587 520.937 592.69 520.304 592.336 519.892L586.7 513.122C585.92 512.18 584.786 511.576 583.579 511.562C582.225 511.547 580.003 511.002 577.001 508.574C572.423 504.865 574.057 500.023 574.057 500.023L570.26 503.04C568.141 504.718 567.11 507.441 567.611 510.105L567.64 510.09Z" fill="url(#paint6_linear_777_3)"/>
<path d="M610.351 586.887C610.351 586.887 612.382 585.65 613.795 583.546C612.176 585.297 606.436 584.429 603.904 580.396C601.402 576.408 602.977 573.759 604.375 572.39C605.288 571.507 605.847 570.329 605.847 569.064V559.011C605.847 557.657 604.979 556.465 603.713 556.009C593.867 552.477 590.364 544.529 589.216 540.703C588.834 539.437 587.686 538.569 586.361 538.569H552.51C551.171 538.569 550.067 539.466 549.641 540.732C548.345 544.529 544.166 546.34 536.954 540.526C532.023 536.552 531.95 533.138 532.759 530.974C531.037 532.343 528.844 534.242 528.844 534.242C528.844 534.242 524.15 540.35 529.934 546.663C535.718 552.963 543.4 547.488 543.4 547.488L547.668 544.014L581.534 543.293C581.534 543.293 583.27 557.466 600.019 563.221L599.842 574.907C599.842 574.907 596.56 577.055 595.957 579.955C595.147 583.884 597.017 586.195 597.017 586.195C598.223 587.888 599.622 588.888 600.946 589.462C603.124 590.404 605.656 590.11 607.613 588.771L610.336 586.916L610.351 586.887Z" fill="url(#paint7_radial_777_3)"/>
<path d="M614.692 557.142C612.779 557.26 611.307 558.85 611.307 560.763V563.927C611.307 563.515 611.543 563.147 611.926 562.985C613.986 562.117 620.609 559.129 624.803 555.214C626.099 554.007 627.158 552.771 628.041 551.535C624.877 555.847 618.593 556.922 614.692 557.142Z" fill="url(#paint8_linear_777_3)"/>
<path d="M207.333 623.193L282.979 659.637C299.888 667.791 320.23 661.309 329.308 644.884L372.234 567.259C378.848 555.306 377.778 540.582 369.521 529.714L352.831 507.731L201.189 508.919L176.11 555.145C169.804 566.775 170.889 581.015 178.911 591.545L195.85 613.807C198.886 617.811 202.831 621.023 207.363 623.208L207.333 623.193Z" fill="url(#paint9_linear_777_3)"/>
<path d="M266.289 636.422L188.796 597.851C173.485 590.225 167.516 571.453 175.626 556.391L218.435 476.889C227.557 459.935 248.426 453.204 265.746 461.622L341.363 498.403C357.935 506.469 364.476 526.708 355.735 542.943L313.527 621.404C304.42 638.343 283.507 644.986 266.304 636.407L266.289 636.422Z" fill="url(#paint10_linear_777_3)"/>
<path d="M338.767 499.591L267.184 464.775C254.762 458.733 240.404 460.933 230.417 469.351C240.214 462.546 253.266 461.123 264.691 466.682L336.274 501.498C351.966 509.124 358.155 528.292 349.883 543.662L309.919 617.928C307.852 621.786 305.124 625.071 301.956 627.725C306.18 624.792 309.802 620.847 312.398 616.022L352.362 541.755C360.633 526.386 354.444 507.232 338.752 499.591H338.767Z" fill="url(#paint11_linear_777_3)"/>
<path d="M224.679 557.15L225.599 555.678L232.099 554.178L267.099 590.678L261.197 599.826C258.865 603.441 254.186 604.722 250.338 602.798C245.91 600.584 244.332 595.05 246.926 590.834L250.099 585.678L247.099 583.178L239.413 595.876C237.284 599.394 232.754 600.598 229.159 598.601C225.324 596.47 224.065 591.556 226.402 587.844L230.599 581.178L231.599 569.178L227.484 567.121C223.792 565.275 222.491 560.651 224.679 557.15Z" fill="url(#paint12_linear_777_3)"/>
<path d="M279.522 589.672L264.978 583.383C259.105 580.843 256.63 573.847 259.599 568.178L298.599 578.678L296.452 583.258C293.47 589.62 285.971 592.461 279.522 589.672Z" fill="url(#paint13_linear_777_3)"/>
<path d="M255.026 550.832L238.147 542.259C234.419 540.365 233.219 535.617 235.599 532.178L238.099 528.678L309.599 557.678L303.526 566.18C301.258 569.355 297.031 570.431 293.521 568.726L282.099 563.178L286.099 553.178L284.099 551.178L282.835 554.127C281.079 558.224 276.237 559.998 272.251 558.004C268.534 556.146 266.945 551.686 268.651 547.897L270.099 544.678L267.599 543.178L265.986 546.889C264.149 551.114 259.133 552.918 255.026 550.832Z" fill="url(#paint14_linear_777_3)"/>
<path d="M264.046 516.284L264.599 515.178L278.099 521.678L272.099 533.678L269.573 532.463C263.539 529.557 261.051 522.274 264.046 516.284Z" fill="url(#paint15_linear_777_3)"/>
<path d="M279.076 527.306L283.928 518.896C286.186 514.979 285.074 509.977 281.356 507.41C277.004 504.399 271.856 500.809 271.856 500.809L260.436 516.646C260.436 516.646 267.28 522.398 271.681 524.231L279.091 527.307L279.076 527.306Z" fill="url(#paint16_linear_777_3)"/>
<path d="M259.006 544.733L239.181 536.247C235.196 534.541 227.416 529.445 226.257 526.442L235.735 524.359C237.814 519.499 255.794 520.39 260.654 522.469L268.15 527.53C272 530.234 273.905 534.219 272.151 538.324L271.577 539.687C269.498 544.547 263.866 546.797 259.006 544.718L259.006 544.733Z" fill="url(#paint17_linear_777_3)"/>
<path d="M290.988 509.085L268.685 546.381C268.685 546.381 274.294 550.334 278.71 552.497C282.872 554.541 287.9 552.945 290.122 548.872L302.714 525.823C304.877 521.87 303.639 516.917 299.879 514.44C295.657 511.666 290.988 509.085 290.988 509.085Z" fill="url(#paint18_linear_777_3)"/>
<path d="M281.516 552.308L300.001 539.645C300.001 539.645 303.457 541.82 308.151 544.926C311.428 547.098 313.15 552.155 311.332 555.646C308.143 561.786 301.019 564.042 294.972 560.66L281.501 552.308L281.516 552.308Z" fill="url(#paint19_linear_777_3)"/>
<path d="M281.516 552.308L286.574 543.245C289.325 538.321 295.676 536.784 300.37 539.89C303.647 542.062 304.756 546.348 302.953 549.839C299.764 555.979 292.132 558.271 286.099 554.89L281.516 552.323L281.516 552.308Z" fill="url(#paint20_linear_777_3)"/>
<path d="M278.292 514.089L266.294 535.214C263.851 539.501 265.493 544.959 269.872 547.194C274.001 549.306 279.054 547.792 281.343 543.756L294.31 520.916C296.537 516.999 295.38 512.026 291.662 509.489C287.486 506.645 280.782 509.683 278.278 514.074L278.292 514.089Z" fill="url(#paint21_linear_777_3)"/>
<path d="M269.575 520.705L274.428 512.295C276.685 508.378 275.573 503.376 271.855 500.809C267.503 497.798 261.495 499.326 259.12 504.062L257.978 506.356C255.849 510.618 257.779 515.797 262.18 517.63L269.59 520.705L269.575 520.705Z" fill="url(#paint22_linear_777_3)"/>
<path d="M239.162 512.95L258.763 521.334C262.864 523.089 264.785 527.853 263.025 531.968L262.444 533.326C260.367 538.182 254.727 540.442 249.872 538.365L230.038 529.882C226.06 528.18 224.207 523.559 225.909 519.581L226.589 517.99C228.666 513.134 234.306 510.874 239.162 512.95Z" fill="url(#paint23_linear_777_3)"/>
<path d="M244.119 543.594L235.132 537.509L223.834 544.098L215.267 549.732C215.267 549.732 221.094 553.796 224.254 555.817C229.274 559.033 235.984 557.441 239.008 552.299L244.134 543.594L244.119 543.594Z" fill="url(#paint24_linear_777_3)"/>
<path d="M233.726 586.022C229.622 583.359 224.91 580.402 224.91 580.402L246.985 542.597C246.985 542.597 250.562 544.64 255.269 547.865L255.564 548.064C259.834 550.64 261.203 556.332 258.897 560.502L246.58 582.816C244.043 587.414 238.125 588.899 233.711 586.037L233.726 586.022Z" fill="url(#paint25_linear_777_3)"/>
<path d="M262.806 561.402L253.808 561.449C250.856 565.861 261.346 572.21 266.22 574.334L286.058 582.94C290.576 584.909 295.857 583.175 298.343 578.918L298.85 578.046C301.505 573.509 300.047 568.726 295.326 565.441L287.855 560.618C282.864 558.388 265.835 556.856 262.791 561.402L262.806 561.402Z" fill="url(#paint26_linear_777_3)"/>
<path d="M256.599 573.236L240.881 580.961C239.737 587.926 249.998 593.659 254.669 595.466C259.962 597.507 265.886 594.71 267.661 589.323L268.116 587.928C269.356 584.173 267.535 580.592 264.007 578.252L256.584 573.236L256.599 573.236Z" fill="url(#paint27_linear_777_3)"/>
<path d="M286.554 559.896C291.353 562.048 293.227 567.883 290.572 572.435L290.065 573.292C287.578 577.548 282.298 579.282 277.779 577.313L257.942 568.723C253.068 566.599 251.301 560.587 254.253 556.174L254.528 555.775C257.571 551.245 263.433 549.55 268.425 551.78L286.554 559.896Z" fill="url(#paint28_linear_777_3)"/>
<path d="M247.032 568.887L241.918 577.785C239.415 582.131 241.383 587.669 246.054 589.476C251.347 591.517 257.271 588.72 259.045 583.333L259.501 581.938C260.741 578.183 258.913 574.095 255.299 572.499L247.032 568.887Z" fill="url(#paint29_linear_777_3)"/>
<path d="M224.911 580.402C220.806 577.738 219.552 572.316 222.068 568.135L235.505 545.721C237.867 541.776 242.933 540.381 246.986 542.581C251.171 544.858 252.711 550.106 250.405 554.29L237.78 577.166C235.243 581.764 229.325 583.249 224.911 580.387L224.911 580.402Z" fill="url(#paint30_linear_777_3)"/>
<path d="M235.117 537.508L228.292 534.263C223.495 531.991 217.754 533.583 214.817 538.011L213.256 540.358C211.176 543.487 212.077 547.71 215.237 549.731C220.257 552.946 226.967 551.355 229.991 546.213L235.117 537.508Z" fill="url(#paint31_linear_777_3)"/>
<path d="M306.377 110.126L330.722 77.2314L478.903 17.5422L516.169 28.6735C523.956 31.0053 530.482 36.3583 534.281 43.5298L560.312 94.6982C565.548 104.993 564.609 117.357 557.892 126.743L497.177 211.525C481.47 233.464 453.341 242.674 427.705 234.286L345.578 207.433C338.934 205.262 333.42 200.555 330.238 194.337L303.737 142.713C298.354 132.228 299.381 119.586 306.391 110.112L306.377 110.126Z" fill="url(#paint32_radial_777_3)"/>
<path d="M429.436 2.37794L517.43 29.3481C534.721 34.6424 541.716 55.3356 531.186 70.0452L464.149 163.641C452.388 180.052 431.357 186.945 412.16 180.668L316.481 149.386C301.126 144.371 295.069 125.863 304.499 112.737L369.131 22.7339C382.785 3.72718 407.041 -4.45625 429.421 2.39261L429.436 2.37794Z" fill="url(#paint33_linear_777_3)"/>
<path d="M513.631 30.6973L429.979 5.06176C408.699 -1.44979 385.644 6.323 372.665 24.3911L370.407 27.5589C370.348 27.6322 370.465 27.4855 370.407 27.5589C383.386 9.49078 406.44 1.70333 427.72 8.22954L511.373 33.8651C527.769 38.8954 534.427 58.474 524.528 72.4357L526.713 69.3853C536.715 55.4089 530.072 35.7423 513.631 30.6973Z" fill="url(#paint34_linear_777_3)"/>
<path d="M394.806 73.0854C367.489 85.2176 352.723 111.682 361.833 132.212C370.944 152.743 400.477 159.56 427.809 147.428C455.141 135.296 469.892 108.831 460.781 88.301L472.712 71.7993C459.821 67.182 419.99 60 394.806 73.0699V73.0854Z" fill="url(#paint35_radial_777_3)"/>
<path d="M415.77 116.501L428.49 133.5C428.49 133.5 453.39 125.272 467.909 96.6386L455.281 79.3298L431.76 99.4262L415.755 116.517L415.77 116.501Z" fill="url(#paint36_linear_777_3)"/>
<path d="M428.687 133.444C428.687 133.444 402.64 145.065 381.49 130.5C378.562 128.238 375.99 125.557 373.852 122.551L364.979 110.923L386.268 107.561L415.77 116.501L428.687 133.459V133.444Z" fill="#1A6000"/>
<path d="M390.87 64.1454L398.261 73.9999L401.034 77.7031L400.725 77.9665C400.725 77.9665 392.048 85.001 390.033 93.6779L380.024 79.7019L381.527 68.3599L390.886 64.1299L390.87 64.1454Z" fill="url(#paint37_linear_777_3)"/>
<path d="M383.681 50.4636L390.855 64.1453C390.855 64.1453 383.743 69.1655 379.993 79.7173L358.409 86.8137C358.409 86.8137 361.012 64.7031 383.681 50.4636Z" fill="url(#paint38_linear_777_3)"/>
<path d="M472.712 71.8149C472.046 69.1653 470.899 66.6707 469.334 64.455L456.644 46.5898L457.016 57.4205L472.712 71.8304V71.8149Z" fill="#FF6956"/>
<path d="M390.235 101.952C389.197 98.853 389.584 95.6921 390.034 93.6933L380.009 79.7173L375.577 93.9567L389.972 106.523L393.148 105.066C391.847 104.447 390.747 103.47 390.235 101.952Z" fill="url(#paint39_linear_777_3)"/>
<path d="M358.409 86.8138L380.009 79.7173C380.009 79.7173 374.152 96.5443 389.429 101.673C389.429 101.673 398.912 105.438 409.371 102.215L415.77 116.501C415.77 116.501 395.457 125.24 375.267 117.601C353.962 109.529 358.409 86.8138 358.409 86.8138Z" fill="url(#paint40_linear_777_3)"/>
<path d="M414.097 70.5598L414.469 70.0175L415.181 70.1725C420.016 68.5146 425.702 67.4455 431.791 68.1272C439.864 69.0259 444.466 71.3966 447.054 73.5968L439.058 62.4562L438.346 48.0773L417.382 47.7209L399.857 50.448L390.855 64.1296L400.787 77.9042C401.283 77.5014 406.442 73.3953 414.097 70.5598Z" fill="url(#paint41_linear_777_3)"/>
<path d="M403.437 86.1008L414.081 100.449H426.508L426.244 91.7253L403.437 86.1008Z" fill="#003187"/>
<path d="M414.484 70.0178L403.437 86.0856L426.26 91.7256C426.26 91.7256 420.697 98.7756 409.371 102.2L415.77 116.486C415.77 116.486 441.832 106.941 455.297 79.299L414.484 70.0178Z" fill="#3B75F4"/>
<path d="M439.074 62.472L450.354 78.1835L455.281 79.3146L472.713 71.8152L460.085 53.2683L439.074 62.472Z" fill="#981111"/>
<path d="M460.084 53.268L439.074 62.4718C439.074 62.4718 437.354 52.3384 420.961 51.92C404.567 51.5016 390.87 64.1452 390.87 64.1452L383.696 50.4635C383.696 50.4635 402.708 35 430.97 35C455.296 35 460.084 53.268 460.084 53.268Z" fill="url(#paint42_linear_777_3)"/>
<path d="M750.87 89.6245L708.721 103.161C702.679 105.097 696.798 107.531 691.137 110.435L636.42 138.52C620.464 146.703 613.659 165.901 620.874 182.311L658.36 267.577C665.604 284.047 684.303 292.142 701.271 286.159L723.666 278.254C737.862 273.253 751.604 267.064 764.759 259.746L750.87 89.6099V89.6245Z" fill="url(#paint43_linear_777_3)"/>
<path d="M807.362 238.041L748.377 268.105C733.008 275.937 714.192 269.367 707.049 253.66L666.704 164.874C659.709 149.49 666.103 131.334 681.179 123.707L743.332 92.2643C758.76 84.4622 777.591 91.1497 784.631 106.959L823.157 193.472C830.593 210.161 823.656 229.755 807.377 238.041H807.362Z" fill="url(#paint44_linear_777_3)"/>
<path d="M682.001 129.192L741.573 99.0544C756.37 91.5749 774.409 97.9984 781.14 113.133L818.069 196.053C821.852 204.53 821.72 213.784 818.465 221.791C823.084 213.124 823.803 202.52 819.52 192.914L782.592 109.995C775.846 94.86 757.807 88.4364 743.025 95.9159L683.453 126.054C676.648 129.5 671.72 135.191 669.08 141.79C671.911 136.54 676.296 132.081 681.986 129.192H682.001Z" fill="url(#paint45_linear_777_3)"/>
<g clip-path="url(#clip0_777_3)">
<path d="M746.635 216.771L759.449 223.218L772.546 222.057L765.974 212.035L780.624 213.713L768.28 200.647L784.937 203.126L781.298 199.628C782.836 190.264 781.753 179.676 777.581 169.371C767.715 144.919 744.36 131.32 725.429 138.958C706.497 146.613 699.141 172.618 709.022 197.04C718.888 221.477 742.243 235.076 761.175 227.437C761.833 227.171 765.331 225.384 765.974 225.071L746.65 216.756L746.635 216.771Z" fill="url(#paint46_linear_777_3)"/>
<path d="M712.786 171.175C712.927 173.45 713.194 175.771 713.617 178.124L780.624 213.697C781.612 212.097 782.474 210.388 783.212 208.553L712.786 171.175Z" fill="url(#paint47_radial_777_3)"/>
<path d="M718.198 193.197L772.546 222.058C774.303 220.928 775.887 219.58 777.314 218.058L715.265 185.104C716.049 187.786 717.037 190.5 718.182 193.197H718.198Z" fill="url(#paint48_radial_777_3)"/>
<path d="M722.778 202.028C733.647 219.611 751.261 229.116 765.974 224.96L722.778 202.028Z" fill="url(#paint49_radial_777_3)"/>
<path d="M784.921 203.095C787.509 192.272 786.176 179.034 780.749 166.627C770.224 142.613 746.148 130.097 728.895 137.876C718.982 142.331 713.57 152.463 712.786 164.808L784.921 203.11V203.095Z" fill="url(#paint50_radial_777_3)"/>
<path d="M724.424 160.165C719.719 158.69 716.629 154.236 716.833 149.468C714.511 153.875 713.147 159.098 712.786 164.792L784.921 203.094C784.921 203.094 779.118 177.293 724.409 160.165H724.424Z" fill="url(#paint51_linear_777_3)"/>
<path d="M772.546 222.042C772.625 221.992 772.702 221.941 772.778 221.889C773.375 221.48 773.287 220.574 772.649 220.231L723.107 193.59C720.77 192.335 718.794 190.515 717.351 188.304L715.265 185.104C716.049 187.786 717.037 190.5 718.182 193.197L772.53 222.058L772.546 222.042Z" fill="url(#paint52_linear_777_3)"/>
<path d="M765.974 224.975C743.294 225.963 722.778 202.043 722.778 202.043C733.647 219.626 751.261 229.131 765.974 224.975Z" fill="url(#paint53_linear_777_3)"/>
<path d="M776.483 209.102L717.962 178.579C715.939 177.512 714.386 175.724 713.617 173.559L712.77 171.16C712.911 173.434 713.178 175.755 713.602 178.108L780.608 213.682C779.823 211.705 778.349 210.074 776.467 209.086L776.483 209.102Z" fill="url(#paint54_linear_777_3)"/>
</g>
<path d="M20.5868 192.959L1.43348 246.372C-1.47032 254.482 0.0989037 263.531 5.58385 270.189L56.3856 331.828C69.4087 347.638 91.2459 353.064 110.165 345.189L176.937 317.368C182.51 315.051 186.837 310.475 188.86 304.77L208.175 250.067C211.049 241.913 209.392 232.835 203.805 226.236L153.721 167.031L101.776 152.16L33.8739 179.232C27.685 181.696 22.86 186.697 20.6161 192.974L20.5868 192.959Z" fill="url(#paint55_radial_777_3)"/>
<path d="M101.747 152.16L34.2701 179.13C20.8363 184.498 16.422 201.334 25.5 212.597L78.7509 278.739C89.7795 292.437 108.61 297.086 124.757 290.076L196.751 258.779C209.363 253.294 213.118 237.191 204.23 226.705L151.625 164.567C139.408 150.121 119.316 145.12 101.747 152.145V152.16Z" fill="url(#paint56_linear_777_3)"/>
<path d="M201.341 227.571L150.73 167.793C142.341 157.879 130.11 152.629 117.644 152.864C129.406 153.201 140.787 158.422 148.721 167.793L199.332 227.571C207.882 237.675 204.274 253.162 192.131 258.442L122.865 288.55C118.348 290.515 113.597 291.498 108.889 291.63C114.257 291.777 119.712 290.794 124.874 288.55L194.14 258.442C206.283 253.162 209.891 237.675 201.341 227.571Z" fill="url(#paint57_linear_777_3)"/>
<path d="M75.5823 231.314V220.814L119.082 250.814L113.582 259.814L102.082 264.314L75.5823 231.314Z" fill="url(#paint58_linear_777_3)"/>
<path d="M94.5823 223.814V213.314L138.082 243.314L132.582 252.314L121.082 256.814L94.5823 223.814Z" fill="url(#paint59_linear_777_3)"/>
<path d="M121.582 211.814V201.314L165.082 231.314L159.582 240.314L148.082 244.814L121.582 211.814Z" fill="url(#paint60_linear_777_3)"/>
<ellipse cx="70.3254" cy="209.778" rx="7.69782" ry="9.8972" transform="rotate(-31.6085 70.3254 209.778)" fill="url(#paint61_linear_777_3)"/>
<path fill-rule="evenodd" clip-rule="evenodd" d="M81.5075 193.77L70.17 190.917L63.3175 202.622C63.1705 202.857 63.0528 203.093 62.9499 203.343C61.5382 206.798 64.3322 211.21 69.1995 213.21C74.0668 215.209 79.1694 214.033 80.5811 210.592L87.0953 199.358L81.4928 193.77H81.5075Z" fill="url(#paint62_linear_777_3)"/>
<path d="M87.7913 198.161C89.2082 194.713 86.4108 190.296 81.5432 188.296C76.6756 186.296 71.581 187.469 70.1641 190.917C68.7473 194.365 71.5446 198.782 76.4122 200.782C81.2798 202.782 86.3744 201.609 87.7913 198.161Z" fill="url(#paint63_linear_777_3)"/>
<path fill-rule="evenodd" clip-rule="evenodd" d="M82.9046 208.475L75.5227 220.9L106.094 256.074L118.564 251.222L125.931 238.59L82.9046 208.475Z" fill="url(#paint64_linear_777_3)"/>
<path fill-rule="evenodd" clip-rule="evenodd" d="M102.638 200.034L98.374 207.092L125.931 238.59L122.711 244.104L126.357 247.766L138.312 242.913L145.68 230.444L102.638 200.034Z" fill="url(#paint65_linear_777_3)"/>
<path fill-rule="evenodd" clip-rule="evenodd" d="M172.178 219.371L164.81 231.782L152.282 236.973L129.739 212.092L124.696 206.901L125.563 198.005L138.048 196.887L172.178 219.371Z" fill="url(#paint66_linear_777_3)"/>
<path fill-rule="evenodd" clip-rule="evenodd" d="M102.638 200.034L114.241 195.27L118.226 199.166C118.226 199.166 117.079 191.976 125.916 188.697C134.754 185.417 142.9 189.652 147.15 192.946C151.4 196.24 172.178 219.371 172.178 219.371L159.958 224.65L140.239 203.593C137.313 200.461 132.754 199.475 128.784 201.108C125.666 202.387 124.725 206.342 126.931 208.886L145.665 230.444L133.886 235.296L102.638 200.034Z" fill="url(#paint67_linear_777_3)"/>
<path fill-rule="evenodd" clip-rule="evenodd" d="M82.9045 208.475L95.0361 203.269L125.931 238.59L113.799 243.605L82.9045 208.475Z" fill="url(#paint68_linear_777_3)"/>
<defs>
<radialGradient id="paint0_radial_777_3" cx="0" cy="0" r="1" gradientUnits="userSpaceOnUse" gradientTransform="translate(512.927 606.669) rotate(-66.2002) scale(183.529 149.897)">
<stop offset="0.393499" stop-color="#E4E4E4"/>
<stop offset="1" stop-color="white"/>
</radialGradient>
<linearGradient id="paint1_linear_777_3" x1="583.987" y1="450.76" x2="583.987" y2="636.933" gradientUnits="userSpaceOnUse">
<stop stop-color="#E9E9E9"/>
<stop offset="1" stop-color="white"/>
</linearGradient>
<linearGradient id="paint2_linear_777_3" x1="676.45" y1="529.674" x2="595.055" y2="544.34" gradientUnits="userSpaceOnUse">
<stop stop-color="#E9E9E9"/>
<stop offset="1" stop-color="#9D9D9D" stop-opacity="0"/>
</linearGradient>
<radialGradient id="paint3_radial_777_3" cx="0" cy="0" r="1" gradientUnits="userSpaceOnUse" gradientTransform="translate(608.517 529.482) rotate(148.276) scale(64.6606 42.062)">
<stop stop-color="#EAEAEA"/>
<stop offset="1" stop-color="#B0B0B0" stop-opacity="0"/>
</radialGradient>
<linearGradient id="paint4_linear_777_3" x1="617.517" y1="504.982" x2="579.498" y2="590.011" gradientUnits="userSpaceOnUse">
<stop stop-color="#FF761E"/>
<stop offset="1" stop-color="#FF703A"/>
</linearGradient>
<radialGradient id="paint5_radial_777_3" cx="0" cy="0" r="1" gradientUnits="userSpaceOnUse" gradientTransform="translate(600.517 543.982) rotate(-39.3693) scale(25.224 24.2061)">
<stop offset="0.324689" stop-color="#FF1001"/>
<stop offset="1" stop-color="#FF1001" stop-opacity="0"/>
</radialGradient>
<linearGradient id="paint6_linear_777_3" x1="564.517" y1="530.982" x2="590.017" y2="513.482" gradientUnits="userSpaceOnUse">
<stop stop-color="#FF1001"/>
<stop offset="1" stop-color="#FF1001" stop-opacity="0"/>
</linearGradient>
<radialGradient id="paint7_radial_777_3" cx="0" cy="0" r="1" gradientUnits="userSpaceOnUse" gradientTransform="translate(570.421 560.493) rotate(-49.7535) scale(41.9395 61.6251)">
<stop stop-color="#FF1001"/>
<stop offset="0.764435" stop-color="#FF1001" stop-opacity="0"/>
</radialGradient>
<linearGradient id="paint8_linear_777_3" x1="619.674" y1="551.535" x2="619.017" y2="579.982" gradientUnits="userSpaceOnUse">
<stop stop-color="#FF1001" stop-opacity="0"/>
<stop offset="1" stop-color="#FF1001"/>
</linearGradient>
<linearGradient id="paint9_linear_777_3" x1="236.43" y1="640.13" x2="342.756" y2="469.275" gradientUnits="userSpaceOnUse">
<stop stop-color="#E5E5E5"/>
<stop offset="1" stop-color="white"/>
</linearGradient>
<linearGradient id="paint10_linear_777_3" x1="356.688" y1="511.806" x2="178.501" y2="583.667" gradientUnits="userSpaceOnUse">
<stop stop-color="#EAEAEA"/>
<stop offset="1" stop-color="#FAFAFA"/>
</linearGradient>
<linearGradient id="paint11_linear_777_3" x1="369.154" y1="464.876" x2="259.895" y2="532.338" gradientUnits="userSpaceOnUse">
<stop stop-color="#E9E9E9"/>
<stop offset="1" stop-color="#939393" stop-opacity="0"/>
</linearGradient>
<linearGradient id="paint12_linear_777_3" x1="250.599" y1="566.678" x2="231.599" y2="603.678" gradientUnits="userSpaceOnUse">
<stop stop-color="#EAEAEA"/>
<stop offset="1" stop-color="#B0B0B0" stop-opacity="0"/>
</linearGradient>
<linearGradient id="paint13_linear_777_3" x1="279.099" y1="572.678" x2="271.599" y2="586.678" gradientUnits="userSpaceOnUse">
<stop stop-color="#EAEAEA"/>
<stop offset="1" stop-color="#B0B0B0" stop-opacity="0"/>
</linearGradient>
<linearGradient id="paint14_linear_777_3" x1="272.599" y1="540.678" x2="266.099" y2="555.178" gradientUnits="userSpaceOnUse">
<stop stop-color="#EAEAEA"/>
<stop offset="1" stop-color="#B0B0B0" stop-opacity="0"/>
</linearGradient>
<linearGradient id="paint15_linear_777_3" x1="268.349" y1="515.178" x2="267.099" y2="529.178" gradientUnits="userSpaceOnUse">
<stop stop-color="#EAEAEA"/>
<stop offset="1" stop-color="#B0B0B0" stop-opacity="0"/>
</linearGradient>
<linearGradient id="paint16_linear_777_3" x1="278.099" y1="504.678" x2="268.099" y2="523.178" gradientUnits="userSpaceOnUse">
<stop stop-color="#005BA0"/>
<stop offset="0.871181" stop-color="#1985D5"/>
</linearGradient>
<linearGradient id="paint17_linear_777_3" x1="262.599" y1="524.678" x2="253.599" y2="542.678" gradientUnits="userSpaceOnUse">
<stop stop-color="#015DA2"/>
<stop offset="1" stop-color="#1A85D6"/>
</linearGradient>
<linearGradient id="paint18_linear_777_3" x1="295.599" y1="512.678" x2="275.099" y2="549.678" gradientUnits="userSpaceOnUse">
<stop stop-color="#017632"/>
<stop offset="1" stop-color="#01A145"/>
</linearGradient>
<linearGradient id="paint19_linear_777_3" x1="303.599" y1="541.678" x2="293.599" y2="559.178" gradientUnits="userSpaceOnUse">
<stop stop-color="#007431"/>
<stop offset="1" stop-color="#00A144"/>
</linearGradient>
<linearGradient id="paint20_linear_777_3" x1="292.847" y1="538.244" x2="292.548" y2="556.463" gradientUnits="userSpaceOnUse">
<stop stop-color="#0DBC57"/>
<stop offset="1" stop-color="#3CE082"/>
</linearGradient>
<linearGradient id="paint21_linear_777_3" x1="280.624" y1="508.263" x2="279.969" y2="548.248" gradientUnits="userSpaceOnUse">
<stop stop-color="#0DBC57"/>
<stop offset="1" stop-color="#3CE082"/>
</linearGradient>
<linearGradient id="paint22_linear_777_3" x1="266.51" y1="499.251" x2="266.16" y2="520.649" gradientUnits="userSpaceOnUse">
<stop stop-color="#2A9EF7"/>
<stop offset="1" stop-color="#66C2EB"/>
</linearGradient>
<linearGradient id="paint23_linear_777_3" x1="248.283" y1="516.852" x2="240.75" y2="534.464" gradientUnits="userSpaceOnUse">
<stop stop-color="#2A9EF7"/>
<stop offset="1" stop-color="#66C2EB"/>
</linearGradient>
<linearGradient id="paint24_linear_777_3" x1="237.099" y1="539.178" x2="224.099" y2="561.178" gradientUnits="userSpaceOnUse">
<stop stop-color="#890027"/>
<stop offset="1" stop-color="#C60132"/>
</linearGradient>
<linearGradient id="paint25_linear_777_3" x1="253.099" y1="547.678" x2="232.599" y2="585.178" gradientUnits="userSpaceOnUse">
<stop stop-color="#890027"/>
<stop offset="1" stop-color="#C70032"/>
</linearGradient>
<linearGradient id="paint26_linear_777_3" x1="288.599" y1="561.178" x2="278.599" y2="580.178" gradientUnits="userSpaceOnUse">
<stop stop-color="#916816"/>
<stop offset="1" stop-color="#E1A120"/>
</linearGradient>
<linearGradient id="paint27_linear_777_3" x1="260.599" y1="576.178" x2="252.599" y2="594.178" gradientUnits="userSpaceOnUse">
<stop stop-color="#916816"/>
<stop offset="1" stop-color="#DFA021"/>
</linearGradient>
<linearGradient id="paint28_linear_777_3" x1="276.443" y1="554.11" x2="264.556" y2="577.134" gradientUnits="userSpaceOnUse">
<stop stop-color="#F2B225"/>
<stop offset="1" stop-color="#FFD067"/>
</linearGradient>
<linearGradient id="paint29_linear_777_3" x1="252.444" y1="571.41" x2="241.147" y2="585.079" gradientUnits="userSpaceOnUse">
<stop stop-color="#F2B225"/>
<stop offset="1" stop-color="#FFD067"/>
</linearGradient>
<linearGradient id="paint30_linear_777_3" x1="247.099" y1="543.178" x2="225.099" y2="580.678" gradientUnits="userSpaceOnUse">
<stop stop-color="#E11A4C"/>
<stop offset="1" stop-color="#DE4E73"/>
</linearGradient>
<linearGradient id="paint31_linear_777_3" x1="229.099" y1="535.678" x2="209.099" y2="570.678" gradientUnits="userSpaceOnUse">
<stop stop-color="#E21B4D"/>
<stop offset="1" stop-color="#DF4B71"/>
</linearGradient>
<radialGradient id="paint32_radial_777_3" cx="0" cy="0" r="1" gradientUnits="userSpaceOnUse" gradientTransform="translate(322.582 200.919) rotate(-29.7646) scale(264.399 316.778)">
<stop stop-color="#E5E5E5"/>
<stop offset="1" stop-color="#FCFCFC"/>
</radialGradient>
<linearGradient id="paint33_linear_777_3" x1="536.7" y1="43.2636" x2="300.584" y2="138.59" gradientUnits="userSpaceOnUse">
<stop stop-color="#EBEBEB"/>
<stop offset="1" stop-color="#FBFBFB"/>
</linearGradient>
<linearGradient id="paint34_linear_777_3" x1="450.908" y1="2.78589" x2="450.908" y2="72.4357" gradientUnits="userSpaceOnUse">
<stop stop-color="#E9E9E9"/>
<stop offset="1" stop-color="#B0B0B0" stop-opacity="0"/>
</linearGradient>
<radialGradient id="paint35_radial_777_3" cx="0" cy="0" r="1" gradientUnits="userSpaceOnUse" gradientTransform="translate(396.99 71.5) rotate(76.987) scale(84.0976 108.769)">
<stop stop-color="#EAEAEA"/>
<stop offset="1" stop-color="#B0B0B0" stop-opacity="0"/>
</radialGradient>
<linearGradient id="paint36_linear_777_3" x1="462.49" y1="88.5" x2="420.99" y2="124" gradientUnits="userSpaceOnUse">
<stop stop-color="#0054E7"/>
<stop offset="1" stop-color="#003187"/>
</linearGradient>
<linearGradient id="paint37_linear_777_3" x1="397.49" y1="72.5" x2="376.99" y2="80" gradientUnits="userSpaceOnUse">
<stop stop-color="#D47F01"/>
<stop offset="0.786116" stop-color="#FC9801"/>
</linearGradient>
<linearGradient id="paint38_linear_777_3" x1="362.99" y1="82.5" x2="382.49" y2="53.5" gradientUnits="userSpaceOnUse">
<stop stop-color="#F5BB2B"/>
<stop offset="1" stop-color="#FCB300"/>
</linearGradient>
<linearGradient id="paint39_linear_777_3" x1="384.363" y1="79.7173" x2="384.363" y2="106.523" gradientUnits="userSpaceOnUse">
<stop stop-color="#1A6000"/>
<stop offset="1" stop-color="#2E9B0D"/>
</linearGradient>
<linearGradient id="paint40_linear_777_3" x1="386.897" y1="79.7173" x2="386.897" y2="120.733" gradientUnits="userSpaceOnUse">
<stop stop-color="#58A55C"/>
<stop offset="1" stop-color="#299905"/>
</linearGradient>
<linearGradient id="paint41_linear_777_3" x1="418.99" y1="89.5" x2="449.49" y2="66.5" gradientUnits="userSpaceOnUse">
<stop offset="0.572197" stop-color="#9B1616"/>
<stop offset="1" stop-color="#D01C1C"/>
</linearGradient>
<linearGradient id="paint42_linear_777_3" x1="435.99" y1="35" x2="421.99" y2="77.5" gradientUnits="userSpaceOnUse">
<stop stop-color="#F8270D"/>
<stop offset="1" stop-color="#DE4A37"/>
</linearGradient>
<linearGradient id="paint43_linear_777_3" x1="691.328" y1="253.819" x2="837.984" y2="126.961" gradientUnits="userSpaceOnUse">
<stop stop-color="#E5E5E5"/>
<stop offset="1" stop-color="#FCFCFC"/>
</linearGradient>
<linearGradient id="paint44_linear_777_3" x1="776.389" y1="88.8303" x2="709.66" y2="267.018" gradientUnits="userSpaceOnUse">
<stop stop-color="#ECECEC"/>
<stop offset="1" stop-color="#FBFBFB"/>
</linearGradient>
<linearGradient id="paint45_linear_777_3" x1="791.054" y1="62.4322" x2="745.722" y2="221.791" gradientUnits="userSpaceOnUse">
<stop stop-color="#E9E9E9"/>
<stop offset="0.850954" stop-color="#B0B0B0" stop-opacity="0"/>
</linearGradient>
<linearGradient id="paint46_linear_777_3" x1="764.63" y1="157.571" x2="713.13" y2="208.571" gradientUnits="userSpaceOnUse">
<stop stop-color="#EAEAEA"/>
<stop offset="1" stop-color="#B0B0B0" stop-opacity="0"/>
</linearGradient>
<radialGradient id="paint47_radial_777_3" cx="0" cy="0" r="1" gradientUnits="userSpaceOnUse" gradientTransform="translate(747.999 192.436) rotate(90) scale(21.261 35.2127)">
<stop stop-color="#939393"/>
<stop offset="1" stop-color="#3F3F3F"/>
</radialGradient>
<radialGradient id="paint48_radial_777_3" cx="0" cy="0" r="1" gradientUnits="userSpaceOnUse" gradientTransform="translate(746.29 203.581) rotate(90) scale(18.4769 31.0249)">
<stop stop-color="#939393"/>
<stop offset="1" stop-color="#3F3F3F"/>
</radialGradient>
<radialGradient id="paint49_radial_777_3" cx="0" cy="0" r="1" gradientUnits="userSpaceOnUse" gradientTransform="translate(744.376 213.978) rotate(90) scale(11.9503 21.5982)">
<stop stop-color="#939393"/>
<stop offset="1" stop-color="#3F3F3F"/>
</radialGradient>
<radialGradient id="paint50_radial_777_3" cx="0" cy="0" r="1" gradientUnits="userSpaceOnUse" gradientTransform="translate(749.491 169.342) rotate(90) scale(33.7682 36.705)">
<stop stop-color="#939393"/>
<stop offset="1" stop-color="#3F3F3F"/>
</radialGradient>
<linearGradient id="paint51_linear_777_3" x1="748.854" y1="149.468" x2="748.854" y2="203.094" gradientUnits="userSpaceOnUse">
<stop/>
<stop offset="1" stop-opacity="0"/>
</linearGradient>
<linearGradient id="paint52_linear_777_3" x1="744.635" y1="185.104" x2="744.635" y2="222.058" gradientUnits="userSpaceOnUse">
<stop/>
<stop offset="1" stop-opacity="0"/>
</linearGradient>
<linearGradient id="paint53_linear_777_3" x1="744.376" y1="202.043" x2="744.376" y2="225.944" gradientUnits="userSpaceOnUse">
<stop/>
<stop offset="1" stop-opacity="0"/>
</linearGradient>
<linearGradient id="paint54_linear_777_3" x1="746.689" y1="171.16" x2="746.689" y2="213.682" gradientUnits="userSpaceOnUse">
<stop/>
<stop offset="1" stop-opacity="0"/>
</linearGradient>
<radialGradient id="paint55_radial_777_3" cx="0" cy="0" r="1" gradientUnits="userSpaceOnUse" gradientTransform="translate(42.5268 281.963) rotate(-20.4099) scale(168.216 260.237)">
<stop offset="0.281632" stop-color="#E4E4E4"/>
<stop offset="1" stop-color="#FBFBFB"/>
</radialGradient>
<linearGradient id="paint56_linear_777_3" x1="156.919" y1="170.504" x2="95.323" y2="293.696" gradientUnits="userSpaceOnUse">
<stop stop-color="#ECECEC"/>
<stop offset="1" stop-color="#FBFBFB"/>
</linearGradient>
<linearGradient id="paint57_linear_777_3" x1="157.456" y1="152.856" x2="157.456" y2="291.644" gradientUnits="userSpaceOnUse">
<stop stop-color="#E9E9E9"/>
<stop offset="1" stop-color="#B0B0B0" stop-opacity="0"/>
</linearGradient>
<linearGradient id="paint58_linear_777_3" x1="103.082" y1="214.814" x2="85.5823" y2="252.814" gradientUnits="userSpaceOnUse">
<stop stop-color="#EAEAEA"/>
<stop offset="1" stop-color="#B0B0B0" stop-opacity="0"/>
</linearGradient>
<linearGradient id="paint59_linear_777_3" x1="122.082" y1="207.314" x2="104.582" y2="245.314" gradientUnits="userSpaceOnUse">
<stop stop-color="#EAEAEA"/>
<stop offset="1" stop-color="#B0B0B0" stop-opacity="0"/>
</linearGradient>
<linearGradient id="paint60_linear_777_3" x1="149.082" y1="195.314" x2="131.582" y2="233.314" gradientUnits="userSpaceOnUse">
<stop stop-color="#EAEAEA"/>
<stop offset="1" stop-color="#B0B0B0" stop-opacity="0"/>
</linearGradient>
<linearGradient id="paint61_linear_777_3" x1="72.6215" y1="206.537" x2="64.6288" y2="215.709" gradientUnits="userSpaceOnUse">
<stop stop-color="#EAEAEA"/>
<stop offset="1" stop-color="#B0B0B0" stop-opacity="0"/>
</linearGradient>
<linearGradient id="paint62_linear_777_3" x1="69.5823" y1="202.314" x2="83.0823" y2="209.314" gradientUnits="userSpaceOnUse">
<stop stop-color="#2A6CCB"/>
<stop offset="1" stop-color="#8DB2E6"/>
</linearGradient>
<linearGradient id="paint63_linear_777_3" x1="70.1641" y1="190.917" x2="87.7913" y2="198.161" gradientUnits="userSpaceOnUse">
<stop stop-color="#6DA6D4"/>
<stop offset="1" stop-color="#1C79C6"/>
</linearGradient>
<linearGradient id="paint64_linear_777_3" x1="86.0823" y1="226.814" x2="110.082" y2="249.814" gradientUnits="userSpaceOnUse">
<stop stop-color="#1067E5"/>
<stop offset="1" stop-color="#081C39"/>
</linearGradient>
<linearGradient id="paint65_linear_777_3" x1="106.082" y1="217.314" x2="126.582" y2="234.314" gradientUnits="userSpaceOnUse">
<stop stop-color="#1167E5"/>
<stop offset="1" stop-color="#022E6D"/>
</linearGradient>
<linearGradient id="paint66_linear_777_3" x1="128.082" y1="203.814" x2="149.582" y2="226.814" gradientUnits="userSpaceOnUse">
<stop stop-color="#1268E6"/>
<stop offset="1" stop-color="#033070"/>
</linearGradient>
<linearGradient id="paint67_linear_777_3" x1="114.082" y1="192.314" x2="150.582" y2="235.314" gradientUnits="userSpaceOnUse">
<stop stop-color="#63A1D3"/>
<stop offset="1" stop-color="#277FC9"/>
</linearGradient>
<linearGradient id="paint68_linear_777_3" x1="104.418" y1="203.269" x2="104.418" y2="243.605" gradientUnits="userSpaceOnUse">
<stop stop-color="#6DA6D4"/>
<stop offset="1" stop-color="#1C79C6"/>
</linearGradient>
<clipPath id="clip0_777_3">
<rect width="81.5775" height="94" fill="white" transform="translate(704.63 135.571)"/>
</clipPath>
</defs>
</svg>
